<?xml version="1.0" encoding="UTF-8" standalone="no"?><!DOCTYPE svg PUBLIC "-//W3C//DTD SVG 1.1//EN" "http://www.w3.org/Graphics/SVG/1.1/DTD/svg11.dtd"><svg width="100%" height="100%" viewBox="0 0 680 680" version="1.1" xmlns="http://www.w3.org/2000/svg" xmlns:xlink="http://www.w3.org/1999/xlink" xml:space="preserve" xmlns:serif="http://www.serif.com/" style="fill-rule:evenodd;clip-rule:evenodd;stroke-linejoin:round;stroke-miterlimit:2;"><g><circle cx="339.753" cy="339.753" r="339.753" style="fill:#2b1a4a;"/><g id="symbol"><path d="M426.485,254.666c123.352,124.131 185.033,262.44 137.826,309.646c-47.262,47.261 -185.837,-14.617 -310.079,-138.254c17.655,17.495 40.65,29.611 66.321,33.686c88.378,71.29 174.832,101.898 207.96,68.77c33.126,-33.128 2.521,-119.577 -68.767,-207.953c-4.041,-25.466 -15.994,-48.298 -33.261,-65.895Zm-1.282,-1.289c-0.207,-0.208 -0.415,-0.416 -0.622,-0.623c-124.619,-124.62 -264.109,-187.179 -311.558,-139.73c-47.449,47.449 15.11,186.939 139.73,311.559c0.351,0.35 0.702,0.701 1.053,1.052c-17.545,-17.559 -29.743,-40.46 -33.945,-66.054c-72.907,-89.347 -104.517,-177.28 -71.04,-210.758c33.477,-33.476 121.408,-1.868 210.752,71.037c25.389,4.165 48.127,16.2 65.63,33.517Z" style="fill:#a095b7;"/><path d="M513.325,235.609c28.759,-0 52.073,-23.314 52.073,-52.072c-0,-28.758 -23.314,-52.072 -52.073,-52.072c-28.758,0 -52.072,23.314 -52.072,52.072c0,28.758 23.314,52.072 52.072,52.072Z" style="fill:#a095b7;fill-rule:nonzero;"/><path d="M166.18,565.398c28.758,-0 52.071,-23.314 52.071,-52.073c0,-28.758 -23.313,-52.072 -52.071,-52.072c-28.759,0 -52.072,23.314 -52.072,52.072c-0,28.759 23.313,52.073 52.072,52.073Z" style="fill:#a095b7;fill-rule:nonzero;"/><path d="M339.752,582.755c134.206,-0 243.003,-108.797 243.003,-243.003c-0,-134.206 -108.797,-243.001 -243.003,-243.001c-134.206,-0 -243.001,108.795 -243.001,243.001c-0,134.206 108.795,243.003 243.001,243.003Zm-0,-121.502c67.103,0 121.501,-54.398 121.501,-121.501c0,-67.103 -54.398,-121.501 -121.501,-121.501c-67.103,0 -121.501,54.398 -121.501,121.501c0,67.103 54.398,121.501 121.501,121.501Z" style="fill:#a095b7;"/><path d="M339.752,391.824c28.759,0 52.072,-23.313 52.072,-52.072c0,-28.759 -23.313,-52.072 -52.072,-52.072c-28.759,-0 -52.072,23.313 -52.072,52.072c-0,28.759 23.313,52.072 52.072,52.072Z" style="fill:#a095b7;fill-rule:nonzero;"/></g></g></svg>