<?xml version="1.0" encoding="UTF-8" standalone="no"?><!DOCTYPE svg PUBLIC "-//W3C//DTD SVG 1.1//EN" "http://www.w3.org/Graphics/SVG/1.1/DTD/svg11.dtd"><svg width="100%" height="100%" viewBox="0 0 5689 5689" version="1.1" xmlns="http://www.w3.org/2000/svg" xmlns:xlink="http://www.w3.org/1999/xlink" xml:space="preserve" xmlns:serif="http://www.serif.com/" style="fill-rule:evenodd;clip-rule:evenodd;stroke-linejoin:round;stroke-miterlimit:2;"><g id="me-and-nala"><g id="nala"><path id="nala-base" d="M3525.05,1941.54c-43.149,-38.361 -75.461,-93.889 -100.899,-160.308c-35.001,-85.496 -27.917,-137.924 0.996,-173.199c-59.548,-153.644 -21.245,-328.72 8.522,-501.925c35.798,-147.815 107.192,-158.055 205.845,-62.944c116.011,152.954 197.306,323.364 271.14,497.525c84.848,-11.943 170.109,-13.192 256.418,12.655c27.707,-209.143 290.587,-588.472 425.906,-587.709c26.485,-1.034 55.467,36.558 89.133,146.608c42.032,189.95 46.364,372.331 8.649,546.271c18.684,77.667 12.646,155.333 -36.878,232.999c-55.878,61.987 -78.345,124.512 -79.534,187.381c41.673,105.668 70.15,286.363 97.155,475.432c6.906,80.927 31.642,154.54 73.147,221.273c51.299,93.188 97.399,191.055 129.599,301.434c225.378,236.307 355.204,467.961 458.861,698.342c86.437,213.308 146.929,439.694 195.907,671.884l15.216,369.488c193.259,33.178 307.471,110.577 327.514,240.656c-67.767,95.441 -169.293,118.506 -282.711,116.076c-40.64,5.625 -83.706,-0.979 -129.93,-23.501c-1.538,40.543 -26.465,68.959 -77.527,83.823l-515.468,85.857c-150.438,23.912 -260.053,10.223 -314.589,-54.199c-24.611,-31.08 -7.821,-70.062 22.67,-111.658l-199.141,11.497c-15.123,67.752 -42.946,133.49 -98.253,194.866c-94.984,31.893 -208.965,73.95 -349.377,33.874c-85.674,-22.178 -98.921,-74.182 -69.603,-143.714c12.429,-35.926 28.141,-54.91 48.233,-60.161c-24.937,-10.011 -43.275,-28.394 -51.707,-59.349c-15.052,-68.272 27.379,-118.286 101.043,-158.378c37.386,-28.411 89.889,-39.344 147.68,-44.166l16.911,-80.074c-78.17,-72.244 -119.215,-164.207 -131.408,-271.494c-11.773,-124.759 17.268,-193.295 69.827,-229.436l-115.712,-91.984c-213.099,869.737 -322.772,975.251 -361.397,989.478c-70.873,35.161 -143.227,50.762 -216.94,48.406c-113.597,15.559 -186.415,-11.965 -229.033,-71.396c-10.225,-66.76 16.096,-116.264 60.671,-157.149c56.665,-44.029 114.46,-70.156 174.161,-66.115c70.415,-25.127 102.967,-184.004 130.315,-361.266c30.665,-246.579 44.936,-491.408 49.28,-735.178c-102.132,-188.979 -124.875,-379.013 -105.5,-569.607c6.336,-164.371 46.533,-322.603 110.662,-476.496c-3.977,-85.776 -3.19,-172.26 12.149,-260.905c-110.429,-145.438 -110.301,-296.479 -33.273,-451.416c-18.114,-64.805 -27.365,-131.102 -8.73,-202.098Z" style="fill:#1d1b27;"/><g id="legs"><path id="right-inner-thigh" d="M4068.48,4368.29l76.32,72.755c6.764,128.283 -3.875,255.978 -21.141,383.448c-113.932,-136.619 -164.6,-354.461 -55.179,-456.203Z" style="fill:#c68749;"/><path id="right-foot" d="M3910.98,5173.61c-25.697,-15.855 -38.304,-38.278 -38.792,-66.78c7.731,-72.492 71.292,-126.73 224.397,-151.694c-12.022,53.217 -31.711,103.088 -70.493,144.625c-40.15,4.273 -65.735,27.235 -85.364,57.841c-8.569,-55.7 20.685,-106.314 69.324,-154.323c-59.271,23.186 -104.499,64.346 -99.072,170.331Z" style="fill:#c68749;"/><path id="right-inner-leg" d="M4555.91,4519.81l-171.693,620.499c67.89,-10.295 137.072,-13.339 207.829,-7.534c22.991,-78.155 135.776,-97.288 266.352,-104.727c-163.6,-100.071 -230.773,-235.047 -216.991,-399.329c-53.633,-19.944 -73.457,-61.893 -85.497,-108.909Z" style="fill:#c68749;"/><path id="left-outter-leg" d="M5002.27,4187.34c155.82,-3.849 263.18,49.955 334.762,146.325c101.227,145.162 158.027,293.028 175.045,443.313c7.281,85.209 -3.766,157.134 -29.319,218.544c-11.382,33.332 -26.996,64.066 -48.476,91.199c-34.58,-51.834 -80.375,-70.332 -131.007,-74.453c78.062,51.576 115.539,90.712 125.359,121.372c2.098,26.289 -2.097,48.694 -18.755,63.405c-71.158,24.438 -219.76,44.15 -359.462,64.404l-211.462,36.771l-52.407,3.047c-18.112,-54.438 4.588,-102.49 49.34,-147.091c-58.562,28.742 -94.86,69.783 -77.331,140.559c-27.671,7.317 -54.719,9.932 -80.386,2.128c-14.707,-59.195 -0.159,-112.289 40.65,-159.906c-38.947,14.712 -66.316,41.708 -75.71,87.772l2.195,67.704c-34.817,-2.377 -59.076,-14.895 -76.475,-34.005c-12.228,-65.112 25.367,-117.6 95.15,-161.931c62.699,-27.628 134.33,-46.338 228.897,-42.149l240.2,45.72c15.904,-7.946 15.139,-16.772 0.289,-26.342c-128.278,-10.637 -239.427,-48.775 -273.286,-79.79c-45.729,-17.74 -84.629,-49.781 -112.332,-105.27c-71.39,-103.279 -86.36,-219.795 -74.083,-342.703c46.82,-208.497 158.489,-325.009 328.604,-358.623Z" style="fill:#c68749;"/></g><path id="tail" d="M5672.59,5151.32c-75.492,5.039 -146.636,-1.198 -213.128,-19.499c-4.057,-1.886 -17.522,-25.613 -14.933,-30.327c3.359,5.227 44.847,-49.058 48.545,-63.697c121.238,24.659 164.769,68.635 179.516,113.523Z" style="fill:#c68749;"/><path id="front" d="M4052.51,1553.41c89.293,2.749 172.703,32.425 245.696,109.783c98.609,116.269 179.648,229.211 231.365,336.602c18.265,49.054 20.091,92.751 12.964,133.53l25.526,-22.664c37.989,128.153 32.378,256.491 28.155,384.823c-23.611,108.139 -68.467,204.732 -146.425,283.335l-280.359,277.352c-129.477,97.494 -204.298,210.55 -236.011,335.882c-8.729,15.853 -7.752,31.707 4.183,47.56c56.444,-7.047 111.269,-44.259 164.596,-109.381l-3.548,45.856c67.735,-15.502 124.886,-64.454 179.419,-121.683l-19.141,61.817c55.842,-5.613 106.385,-54.5 155.556,-114.592l7.841,42.03c68.524,-42.602 111.274,-106.095 133.182,-186.481l11.947,62.932c55.698,-13.789 92.162,-73.446 109.561,-178.573l55.004,114.626c-4.908,156.909 -31.936,274.584 -83.278,349.133c53.31,6.812 106.62,-22.469 159.929,-106.054c26.309,86.068 36.258,172.136 41.444,258.204c-51.826,255.749 -116.141,421.084 -187.385,536.244l-1.289,-122.941c-103.524,432.335 -218.158,864.67 -352.464,1297.01c-23.195,61.736 -79.42,107.365 -221.294,111.226c-10.722,-51.002 6.546,-106.47 42.818,-164.97c-59.392,35.968 -86.626,91.041 -83.444,164.185l-84.611,-6.869c-6.383,-40.594 0.085,-88.662 44.023,-158.519c-62.656,29.137 -78.76,85.282 -71.411,155.035c-45.047,-10.787 -69.165,-7.085 -60.782,-88.78c20.135,-53.829 76.055,-106.337 158.904,-157.851c57.929,-55.925 107.237,-160.99 132.159,-405.051c10.576,-240.601 12.325,-477.042 -9.986,-739.433l-39.077,-4.041c21.67,149.772 35.109,307.7 34.326,431.963c-193.781,-173.864 -366.548,-331.421 -480.535,-543.661l-28.048,7.08c50.319,102.911 113.735,212.165 280.525,371.49c-79.41,325.086 -166.587,632.292 -279.006,881.39c-28.527,100.315 -120.322,147.989 -269.815,147.66c-11.764,-51.684 6.664,-105.528 45.42,-160.827l-27.92,-4.062c-44.363,69.471 -67.446,119.464 -47.695,170.731l-96.83,-23.415c-16.173,-49.377 0.059,-103.265 47.715,-161.526c-48.474,19.556 -79.15,64.919 -77.163,157.649c-50.493,4 -68.86,-29.083 -54.254,-100.226c28.022,-55.48 79.961,-104.61 216.996,-131.152c43.747,-4.901 69.31,-31.841 73.221,-85.025c74.025,-134.72 113.479,-487.101 123.594,-1024.2c-119.907,-263.059 -146.32,-523.062 -66.39,-779.589c12.804,59.535 26.195,118.431 71.582,142.565l15.619,-63.904c40.843,106.795 96.454,187.693 179.717,220.107c14.259,-81.986 0.614,-171.638 -51.757,-271.93c-56.633,-77.336 -101.629,-158.048 -121.427,-246.071c-26.444,-72.253 -20.141,-188.22 -8.703,-311.042c-96.695,-122.086 -121.6,-270.52 -33.421,-460.456c-28.694,-91.1 -29.05,-156.528 -3.257,-198.267c48.697,-119.406 128.09,-230.97 247.207,-332.385c85.812,-44.424 167.906,-61.193 246.532,-52.171Z" style="fill:#c68749;"/><g id="ears"><path id="right-ear" d="M3571.85,1858.81c-60.978,-42.46 -98.321,-97.887 -96.487,-174.809c9.845,-21.107 24.014,-38.632 45.43,-50.15c-105.03,-261.596 -33.443,-560.979 11.143,-552.469c147.617,94.572 172.489,279.118 215.937,450.047l-69.982,-66.657c-4.429,55.461 12.971,107.449 41.597,157.651l-62.299,-59.69c-14.603,45.161 -3.174,91.635 25.059,138.956l-110.398,157.121Z" style="fill:#c68749;"/><path id="left-ear" d="M4512.95,1906.23c68.022,-44.784 109.679,-103.245 107.634,-184.377c-10.983,-22.263 -26.788,-40.748 -50.679,-52.896c117.164,-275.915 37.306,-591.686 -12.43,-582.709c-164.671,99.747 -192.415,294.395 -240.883,474.681l78.067,-70.306c4.94,58.497 -14.469,113.331 -46.403,166.281l69.496,-62.958c16.29,47.633 3.541,96.651 -27.953,146.563l123.151,165.721Z" style="fill:#c68749;"/></g><g id="full-snout"><path id="snout" d="M3949.4,2180.73c148.411,102.338 249.455,215.092 283.163,342.653c12.613,-16.048 27.194,-25.356 44.294,-26.036c20.406,32.877 22.665,67.312 13.53,102.725c-21.499,40.228 -50.051,73.271 -79.195,105.711c-36.48,69.645 -80.564,107.862 -132.664,112.955c-99.285,82.416 -229.345,80.386 -298.469,-2.128c-58.334,-5.56 -88.042,-20.845 -96.05,-43.501c-39.433,-44.207 -41.936,-94.818 -36.022,-146.889c26.191,-221.724 140.491,-356.588 301.413,-445.49Z" style="fill:#1d1b27;"/><path id="mouth" d="M3719.67,2804.05c71.396,-8.468 117.933,-24.282 138.926,-47.645c12.252,-26.647 9.892,-51.079 -8.645,-73.056c-90.2,-30.295 -115.71,-77.082 -117.519,-129.911c-5.339,-42.757 11.323,-74.504 47.954,-96.258c42.965,-25.088 79.938,-35.317 110.993,-30.873c45.596,3.339 83.748,16.507 110.617,44.571c20.107,27.478 30.688,55.712 31.243,84.743c-7.062,52.173 -26.877,86.158 -52.978,111.179c-29.512,19.647 -59.924,27.2 -91.076,24.811c-11.876,39.898 19.911,63.544 56.69,85.332c99.17,38.395 255.287,-60.701 267.844,-71.121c-6.634,3.996 -54.598,39.385 -67.722,46.365c-63.53,33.791 -201.001,87.704 -260.24,10.13c-17.315,47.894 -131.706,58.241 -166.087,41.733Z"/></g><g id="eyes"><path id="left-eye-bg" d="M4276.87,1938.79c3.696,-51.423 -115.494,-76.229 -137.368,-64.918c-12.719,8.282 -79.986,47.893 -79.093,126.914c-26.502,113.943 8.486,262.052 70.864,241.85c-19.209,-14.334 -23.189,-34.843 -19.115,-58.619c20.259,28.477 54.622,44.576 109.216,42.921c65.228,-18.21 99.221,-57.748 109.219,-113.67l27.186,7.317c-7.794,-59.427 -36.251,-105.521 -81.457,-140.81l-71.139,-6.996c17.255,-16.207 39.066,-24.794 71.687,-33.989Z" style="fill:#1d1b27;"/><path id="right-eye-bg" d="M3682.31,1931.59c-3.272,-50.194 102.265,-74.406 121.634,-63.366c11.261,8.084 70.823,46.747 70.033,123.879c23.465,111.217 -7.515,255.784 -62.747,236.065c17.008,-13.991 20.533,-34.01 16.925,-57.217c-17.938,27.796 -48.365,43.51 -96.705,41.894c-57.757,-17.774 -87.855,-56.367 -96.708,-110.951l-24.072,7.143c6.901,-58.006 32.098,-102.998 72.126,-137.443l62.99,-6.828c-15.279,-15.819 -34.591,-24.202 -63.476,-33.176Z" style="fill:#1d1b27;"/><g id="right-eye"><ellipse id="right-iris-outter" cx="3749.35" cy="2093.72" rx="67.058" ry="64.31" style="fill:#683828;"/><ellipse cx="3754.62" cy="2085.49" rx="36.711" ry="58.436"/><ellipse cx="3768.66" cy="2049.93" rx="12.712" ry="13.602" style="fill:#fff;"/></g><g id="left-eye"><ellipse id="right-iris-outter1" serif:id="right-iris-outter" cx="4214.49" cy="2103.43" rx="67.058" ry="64.31" style="fill:#683828;"/><ellipse cx="4219.76" cy="2095.2" rx="36.711" ry="58.436"/><ellipse cx="4233.8" cy="2059.64" rx="12.712" ry="13.602" style="fill:#fff;"/></g></g><path id="crown" d="M4005.02,1545.81c-29.282,91.327 -71.493,176.62 -146.421,246.643c53.534,38.559 95.204,80.89 116.669,129.644c29.365,-47.591 69.92,-88.079 129.173,-116.699c-58.597,-81.429 -85.25,-169.258 -99.421,-259.588Z" style="fill:#1d1b27;"/></g><g id="me"><path id="me-base" d="M2084.46,233.124c82.435,-71.321 194.895,-111.058 364.176,-91.026c345.116,81.485 539.655,263.632 593.559,521.925c5.001,49.306 0.634,91.093 -17.966,121.458c-4.334,-13.377 -16.632,-33.157 -35.645,-58.337c8.054,64.356 7.223,117.499 -2.792,159.05c-12.93,105.052 -46.671,195.855 -94.918,276.726c-51.431,325.287 -145.701,514.629 -273.365,597.996c123.986,54.668 225.845,132.693 303.871,235.878c73.366,138.715 129.185,286.369 171.243,441.033c26.244,97.389 61.589,191.403 105.237,282.338c86.992,-7.913 157.65,28.792 214.007,104.561c50.057,8.99 98.778,20.027 143.052,37.879c22.198,161.643 0.635,326.677 -82.113,471.716c-85.648,3.305 -171.295,-0.063 -256.943,-9.786c-88.086,78.997 -191.644,78.514 -310.353,0.196c-44.306,-34.892 -55.284,-60.164 -63.091,-84.522c-177.989,-142.689 -208.84,-254.608 -259.082,-370.582c-34.643,115.859 -55.705,231.717 -71.074,347.575c-24.372,128.331 21.44,206.045 91.048,266.599c17.253,22.771 30.202,45.542 37.061,68.314c135.01,68.359 251.912,144.89 361.519,224.714c109.407,92.936 188.651,200.139 219.609,330.182c17.524,148.224 -23.039,257.896 -103.812,340.88c-84.925,78.182 -157.041,111.579 -224.99,130.406c-174.582,69.109 -382.351,112.724 -588.982,157.213c-6.537,8.041 -14.116,7.406 -22.152,2.97c-32.782,31.403 -87.937,37.936 -146.713,32.31l-5.677,14.799c11.802,22.263 30.208,43.773 62.833,63.664c96.075,9.716 164.53,23.378 194.198,42.58c65.171,58.105 94.122,136.106 86.223,234.352c-21.519,60.327 -93.661,84.744 -193.383,89.596c-115.352,10.215 -226.145,0.787 -333.645,-22.826c38.258,74.789 49.59,150.887 24.169,228.772c-62.276,68.132 -168.561,96.28 -301.557,100.159c-82.889,4.7 -159.331,1.148 -223.8,-17.732c-116.946,-19.29 -211.71,-65.633 -283.934,-139.466c-15.502,16.616 -38.828,16.407 -65.807,8.344c-95.826,-23.084 -161.552,-63.485 -174.994,-133.963c1.657,-179.28 35.113,-339.286 103.745,-477.967c-22.285,-15.524 -30.983,-32.05 -33.487,-49.032c-5.808,-61.842 40.185,-158.824 74.772,-265.484c23.981,-73.955 44.469,-147.586 55.046,-225.451c-315.227,-35.614 -498.507,-154.634 -540.882,-362.722c-10.768,21.614 -25.469,36.596 -47.93,38.494c-23.161,0.699 -34.117,-40.104 -33.535,-120.146c-3.661,-116.814 13.106,-223.642 40.177,-325.435c-142.288,-26.5 -250.484,-77.34 -314.017,-160.068c-54.263,-66.215 -84.369,-171.981 -72.057,-347.196c34.648,-408.338 76.193,-374.526 116.139,-443.281c19.114,-24.986 40.552,-39.938 63.678,-47.6c98.469,-487.489 145.301,-466.506 200.293,-525.875c-251.888,-85.626 -145.801,-472.364 -115.589,-465.886c-26.225,1.46 94.977,-200.735 247.217,-188.247c132.109,-21.633 248.159,-20.683 345.918,5.991c109.547,-39.015 237.424,-60.146 382.201,-64.789c114.056,1.831 217.274,15.944 294.26,59.782c-81.006,-100.762 -88.939,-210.768 -36.12,-328.459c5.08,-175.254 21.882,-318.368 64.166,-391.61c42.998,-115.063 119.668,-210.548 231.685,-285.483c46.395,-27.469 92.812,-46.683 139.303,-35.481Z"/><g id="backpack"><path id="backpack-left-strap" d="M2623.47,1784.3c75.738,24.635 117.787,97.762 129.609,214.398c19.721,110.129 17.179,221.433 -1.15,333.571c-23.112,167.19 -80.071,294.629 -142.302,415.878c9.898,-62.782 17.955,-126.779 23.285,-192.571c14.944,-111.279 21.356,-222.522 10.208,-333.57c-3.328,-41.809 -14.104,-81.679 -31.646,-119.789c21.757,10.033 37.448,30.76 60.836,31.954c15.763,-45.638 14.248,-90.908 4.2,-135.997c-7.627,-71.957 -26.295,-143.183 -53.04,-213.874Z" style="fill:#332a25;"/><path id="backpack-right-strap" d="M1114.58,1709.89c92.355,-57.741 217.589,-76.099 346.074,-90.564c89.558,63.413 110.167,153.352 128.408,244.202c16.176,119.376 9.98,238.655 -7.554,357.884c-29.546,102.451 -63.876,207.43 -137.456,333.156c-66.524,106.4 -145.319,202.979 -233.743,291.854c50.786,-131.49 101.637,-262.953 138.51,-400.035c29.254,-139.592 54.539,-281.995 46.045,-448.323c-40.624,-189.524 -116.622,-316.436 -280.284,-288.174Z" style="fill:#332a25;"/><path id="backpack-top-right" d="M671.726,1307.29c186.603,31.835 192.382,191.712 188.739,358.26c-23.792,204.763 -121.338,277.04 -271.232,255.285c-77.699,-22.031 -129.336,-59.675 -159.59,-110.129c-39.437,-65.767 -42.543,-153.3 -19.682,-256.391c42.391,-147.647 117.883,-247.112 261.765,-247.025Z" style="fill:#332a25;"/><path d="M733.928,1291.61c86.916,-11.728 176.737,-11.079 271.242,9.519c49.43,21.625 85.503,50.658 106.039,88.31c37.156,76.795 48.6,165.047 40.091,262.189c-51.052,16.157 -101.069,44.39 -150.132,83.752c-141.644,120.605 -219.547,177.024 -223.401,158.874c68.69,-49.014 102.298,-124.261 99.89,-226.44c6.593,-75.849 2.969,-150.643 -9.369,-224.539c-27.961,-66.274 -73.706,-115.933 -134.36,-151.665Z" style="fill:#332a25;"/><path d="M1053.33,1294.5c364.018,-95.265 593.246,-61.047 729.508,62.48l0.322,83.961c-63.137,32.685 -104.147,86.658 -138.675,146.866c-190.354,-10.801 -340.001,18.946 -473.273,65.004c24.113,-174.653 -20.024,-289.873 -117.882,-358.311Z" style="fill:#332a25;"/><path d="M558.373,1941.3c66.186,13.818 138.765,14.002 222.781,-10.207c27.268,-9.136 53.413,-24.519 78.696,-44.686c-204.631,273.448 -277.688,513.961 -340.191,751.831c-54.024,-6.313 -105.166,-23.666 -145.479,-82.5c-53.579,-53.205 55.541,-551.937 184.193,-614.438Z" style="fill:#332a25;"/><path d="M331.674,2491.62c5.003,84.479 62.099,144.352 183.895,173.663c-47.498,159.843 -75.754,310.416 -65.408,442.397c-17.157,68.731 -20.852,131.386 -8.685,186.882c10.535,48.052 32.962,90.738 68.839,127.352c-77.236,-11.222 -151.044,-41.281 -221.252,-91.122c-66.133,-54.455 -102.399,-126.034 -106.398,-216.114c-2.326,-14.432 -4.239,-29.545 -5.745,-45.197c-20.782,-216.021 36.041,-534.623 154.754,-577.861Z" style="fill:#332a25;"/></g><g id="upperbody-clothing"><path id="shirt" d="M1910.79,1963.64c51.281,78.554 147.762,120.784 282.922,131.93c114.027,-5.54 185.605,-58.118 205.963,-167.456c8.058,58.885 8.273,118.687 -4.184,179.972c-15.395,147.358 -37.712,294.717 -61.646,442.075c-13.613,113.118 -30.698,225.801 -48.008,338.455c-34.331,116.849 -38.742,225.723 -38.906,333.466c-2.569,47.789 -0.626,93.279 7.842,135.442c-62.24,53.152 -126.462,84.399 -192.201,98.906c-66.55,-81.612 -176.935,-139.259 -309.284,-184.896c73.84,-200.298 133.922,-403.026 182.123,-607.85c31.922,-150.071 49.98,-298.722 47.666,-445.288c-4.577,-85.373 -34.076,-170.166 -72.287,-254.756Z" style="fill:#1d1b27;"/><path id="right-front-flannela" d="M1798.55,1456.02c-11.768,177.022 10.977,352.403 87.786,525.214c38.946,77.428 64.779,157.231 78.161,239.292c-7.92,113.248 -15.616,226.607 -35.414,334.058c-45.269,239.461 -113.88,475.446 -201.196,708.646c-179.107,-57.856 -350.568,-123.803 -512.598,-199.73l19.448,-103.431c-23.447,-21.156 -31.892,-48.655 -26.021,-82.207c442.959,-458.645 398.882,-636.834 414.639,-797.448c15.387,14.42 40.445,11.631 72.272,-3.2c27.466,-21.468 56.675,-37.958 87.391,-50.15c43.366,-4.376 78.757,13.692 113.061,34.815c-5.905,-25.568 -24.693,-47.775 -66.872,-63.88c-24.23,-3.321 -50.191,-0.391 -78.042,9.364c-24.586,23.925 -51.404,41.295 -83.341,43.635c-14.033,4.063 -27.085,6.206 -36.921,2.057c-5.189,-2.189 -9.483,-6.129 -12.553,-12.462c-22.466,-441.597 77.144,-518.237 180.2,-584.573Z" style="fill:#a84631;"/><path id="right-sleeve" d="M1184.86,1719.59c109.369,48.883 166.058,145.49 181.485,279.478c7.837,146.005 -1.939,293.859 -47.341,445.452c-43.182,151.341 -91.196,302.723 -157.316,453.36c-262.778,-117.62 -492.398,-59.401 -688.107,178.647c-25.253,-129.845 131.369,-655.398 155.417,-703.208c35.504,-112.63 140.964,-344.384 267.969,-494.274c87.98,-103.833 211.287,-143.506 287.893,-159.455Z" style="fill:#a84631;"/><path id="right-sleeve-cuff" d="M489.27,3109.12c57.571,-109.877 160.222,-177.249 290.575,-218.501c158.607,-44.42 290.359,-19.326 403.614,47.594c17.227,17.738 25.111,38.054 20.885,61.713c-12.027,19.134 -19.881,38.804 -15.672,60.026c-58.737,-32.173 -122.074,-41.502 -188.182,-37.069c-96.037,12.911 -162.187,46.64 -219.397,86.596c-114.586,97.761 -147.119,166.532 -154.281,226.339c-9.585,82.77 24.799,132.592 81.958,165.349c-46.502,-9.752 -95.849,-31.142 -150.788,-75.395c-65.553,-55.554 -99.056,-123.148 -96.958,-204.118c5.819,-37.539 15.289,-75.05 28.246,-112.534Z" style="fill:#a84631;"/><path id="left-front-flannel" d="M2422.95,1850.88c59.757,-3.263 114.094,-31.512 167.801,-62.667c27.801,68.688 47.051,138.36 62.205,208.504c5.708,36.977 8.298,74.148 3.352,111.788c-17.637,-11.803 -35.208,-23.663 -38.34,-48.129c-21.967,-32.633 -43.148,-45.265 -63.81,-44.712c-77.656,26.643 -94.653,78.249 -110.598,130.288c22.751,2.31 42.7,-15.31 61.231,-43.03c15.801,-33.24 34.584,-48.587 55.902,-48.726c45.677,29.339 44.692,101.846 51.857,166.813c8.952,434.821 -32.644,521.873 -66.159,664.526c-30.86,112.766 -54.879,224.736 -71.155,335.804c-14.754,188.303 66.277,236.356 129.022,311.182l-48.174,-29.024c-39.26,-6.139 -76.872,-15.993 -108.578,-39.176c-97.629,-24.357 -142.545,-74.147 -171.103,-131.829c-21.564,-176.77 19.439,-368.233 49.761,-557.188l63.746,-444.98c30.744,-157.802 45.302,-317.255 33.04,-479.444Z" style="fill:#a84631;"/><path id="left-sleeve" d="M2728.14,1848.25c122.372,73.037 205.955,203.146 260.655,375.755c111.205,383.395 142.674,435.383 184.473,506.983c-94.466,20.932 -189.339,95.747 -284.677,232.633c-43.55,61.322 -70.363,136.993 -49.115,253.862c-109.266,-111.067 -195.345,-235.464 -243.335,-381.758c5.371,-20.067 13.158,-39.967 27.012,-59.449c229.563,-407.478 184.904,-837.701 104.987,-928.026Z" style="fill:#a84631;"/><path id="left-sleeve-cuff" d="M3380.79,2826.21c-26.835,-34.19 -65.054,-61.945 -119.481,-80.536c-16.509,-1.514 -34.767,-1.486 -61.29,5.832c-115.065,30.99 -214.305,109.012 -292.493,249.6c-36.272,64.915 -50.318,138.529 -41.872,220.946c32.672,81.896 90.696,143.927 245.596,130.054c35.341,-8.805 62.666,-19.051 66.992,-33.431c-42.02,7.038 -78.861,-7.197 -107.927,-53.367c-7.411,-67.574 -28.013,-124.018 48.821,-262.676c73.297,-103.247 151.246,-191.647 261.654,-176.422Z" style="fill:#a84631;"/><path id="top-right-shoulder" d="M1485.37,1619.38c55.527,-9.053 107.467,-9.891 154.228,1.135c-26.984,51.062 -41.007,103.517 -39.754,157.612c-37.274,-91.59 -75.343,-148.389 -114.474,-158.747Z" style="fill:#a84631;"/></g><g id="arms"><path id="right-hand" d="M679.617,3437.94c-22.492,-18.393 -32.72,-51.121 -22.014,-108.321c12.224,-65.967 58.805,-125.457 122.62,-181.697c65.421,-53.057 136.337,-90.974 218.27,-98.549c40.022,-4.182 78.799,-4.24 114.283,6.599c187.252,80.754 371.757,152.163 553.227,213.254c128.329,39.541 243.644,94.057 340.135,170.229c87.584,75.408 137.209,150.819 170.276,226.232c27.709,72.674 39.335,146.122 24.492,220.84c-4.56,21.721 -15.944,41.144 -37.444,57.161c-9.332,3.108 -18.305,4.546 -26.326,1.543c6.181,-54.644 -1.869,-106.832 -8.309,-165.104c-19.263,-81.92 -51.038,-149.046 -97.14,-202.737c-19,-3.983 -19.447,5.158 -14.969,17.783c39.085,59.102 68.149,119.875 82.728,183.065c11.405,36.319 15.142,73.248 16.202,110.39c0.607,40.973 -4.132,79.464 -24.063,110.901l-37.645,37.077c-25.962,7.103 -40.909,3.062 -44.236,-12.735c11.234,-43.43 10.694,-88.052 11.872,-136.348c-7.617,-84.126 -33.724,-154.707 -70.454,-222.718l-13.137,-23.627c-10.672,-3.198 -15.423,-6.071 -24.277,2.811c47.96,83.142 77.541,163.975 83.344,241.821c2.914,35.786 1.393,71.572 -6.113,107.358c-9.812,43.289 -23.542,69.577 -43.65,68.183c-22.053,0.745 -34.841,-11.054 -41.98,-30.499c-9.211,-43.638 -13.161,-93.363 -10.864,-144.302c-10.497,-81.039 -49.839,-147.095 -93.832,-213.455c-8.562,0.985 -14.534,4.784 -17.152,12.223c12.001,14.6 21.274,29.544 20.097,45.801c35.064,50.891 55.926,103.742 65.748,158.117c7.918,46.308 11.621,82.789 10.367,107.704c-5.99,23.005 -14.268,41.334 -33.441,37.388c-27.01,-1.307 -45.529,-16.975 -57.847,-43.131l-34.873,-104.057c-13.821,-59.129 -41.933,-106.559 -79.995,-145.845c-26.136,-14.082 -52.487,-28.081 -64.468,-47.641c-76.352,-24.087 -111.894,-72.195 -132.11,-129.323c-2.871,-16.676 -9.853,-30.328 -20.822,-41.048c-11.49,7.439 -17.552,19.169 -11.541,40.442c-114.764,3.339 -227.71,3.04 -334.303,-9.985c-271.012,-29.138 -394.804,-69.205 -430.656,-115.8Z" style="fill:#e8a777;"/><path id="left-forearm" d="M3319.39,2854.36c19.021,-4.21 42.761,-5.628 75.728,-1.589c54.461,4.842 102.935,13.909 146.286,26.591l-95.999,432.582c-110.413,-2.533 -225.007,-0.882 -315.22,-23.633c-27.194,-14.036 -42.033,-36.029 -42.793,-61.701c-5.164,-174.263 113.863,-347.753 231.998,-372.25Z" style="fill:#e8a777;"/></g><g id="boots"><path id="right-boot-sole" d="M945.222,5140.57c-9.125,41.404 -8.31,83.536 5.276,126.755c58.133,53.69 117.436,78.91 177.151,94.122c6.823,-15.433 11.36,-30.698 13.466,-45.786c29.359,35.32 57.606,57.119 85.551,75.259c63.889,48.296 137.493,79.775 221.275,93.637c70.881,13.189 144.262,17.529 220.089,13.212c76.668,-3.605 149.79,-17.232 218.613,-43.015c26.406,-8.027 51.108,-23.931 73.848,-48.897c7.852,-35.405 7.511,-70.216 -0.564,-104.464c-60.175,31.922 -119.67,51.097 -178.721,61.945c-74.523,17.754 -148.468,25.454 -221.969,25.427c-86.753,1.647 -162.522,-8.693 -225.417,-33.083c-41.463,-15.974 -79.311,-32.95 -111.124,-51.598c-47.629,-21.285 -82.027,-48.991 -111.384,-79.144c-34.237,-14.227 -67.576,-29.387 -99.512,-46.011c-22.983,-11.963 -45.239,-24.684 -66.578,-38.359Z" style="fill:#332a25;"/><path id="right-boot-top" d="M1036.11,4782.04c93.229,74.455 233.023,103.508 409.011,97.268c82.103,-6.433 132.693,-20.6 169.11,-38.244c2.322,23.205 2.637,43.827 1.011,61.95c-313.352,-7.723 -312.365,61.814 -346.134,122.808c31.899,-39.595 78.829,-70.077 147.116,-87.61c52.183,-13.398 116.839,-19.234 196.792,-15.797l1.308,39.782c-135.866,8.374 -250.029,66.059 -281.5,121.864c-6.566,11.641 -9.532,23.2 -8.347,34.213c38.034,-55.378 123.661,-101.177 291.61,-130.405l64.491,56.808c-48.941,1.25 -89.239,4.802 -131.191,20.262c-82.876,30.542 -125.631,107.435 -125.631,107.435c103.134,-77.897 199.765,-104.277 291.1,-88.701c62.521,20.268 121.599,47.184 175.392,84.303c27.884,31.422 50.68,68.859 66.511,114.532c-51.581,43.43 -113.569,58.837 -178.967,65.062c-113.208,24.674 -224.025,28.159 -332.847,13.974c-78.749,-10.139 -152.807,-39.135 -222.849,-84.275c-30.322,-12.864 -57.203,-33.218 -82.021,-58.066c-67.169,-30.474 -133.428,-61.539 -186.169,-101.382c12.899,-114.737 38.876,-226.939 82.204,-335.781Z" style="fill:#4e3527;"/><path id="left-boot-sole" d="M1634,4869.09c38.825,52.147 87.649,97.397 145.995,136.077c55.365,47.099 132.376,76.492 221.466,96.004c104.616,16.213 214.25,21.818 334.992,3.949c36.881,-5.277 74.061,-15.693 111.618,-32.56c7.364,20.892 5.745,41.553 0.215,62.115c-33.896,31.41 -72.106,45.295 -113.011,48.236c-30.308,9.849 -68.074,12.972 -110.596,11.807c-27.675,5.892 -71.448,3.441 -115.157,1.024c-41.404,-10.736 -94.618,-17.043 -153.317,-21.294c-35.58,-14.267 -69.256,-35.075 -101.929,-59.329c-23.337,-15.696 -51.515,-26.779 -84.73,-33.063c-44.754,-23.877 -87.508,-59.889 -126.719,-117.409c-10.81,-31.471 -11.976,-63.409 -8.827,-95.557Z" style="fill:#332a25;"/><path id="left-boot-top" d="M1806.28,4494c3.484,33.205 14.637,62.738 31.384,89.592c36.839,59.068 100.748,105.169 169.666,148.871c-49.971,6.107 -80.967,24.337 -95.827,52.876c41.608,-18.182 84.29,-30.786 129.196,-31.848c44.735,8.348 62.25,24.41 73.602,42.219c-94.969,-1.632 -137.282,34.712 -167.046,80.107c56.493,-35.142 115.393,-61.114 182.556,-55.608c20.557,12.594 33.166,26.817 39.927,42.239c-78.835,-5.349 -124.408,33.234 -158.777,86.616c57.029,-35.863 113.59,-64.076 168.653,-67.813c81.932,-2.851 139.081,8.022 180.801,27.439c59.283,50.946 77.405,99.749 83.344,147.918c-67.424,26.248 -141.645,39.525 -220.406,44.137c-90.287,2.668 -165.733,-4.684 -226.227,-22.132c-81.742,-7.557 -151.392,-41.439 -214.687,-89.155c-56.268,-40.178 -100.886,-84.611 -141.003,-130.689l-1.745,-23.283c29.503,-15.556 51.381,-36.748 65.806,-63.446c20.166,-108.681 51.861,-203.624 100.783,-278.04Z" style="fill:#4e3527;"/></g><g id="legs1" serif:id="legs"><path id="left-pant-leg" d="M2094.41,3477.6c30.748,-13.311 61.297,-28.351 91.626,-45.293c27.804,-15.532 55.424,-32.662 82.844,-51.524c40.971,61.152 102.161,95.681 174.265,115.841c66.233,17.451 119.757,37.052 149.595,60.662l77.075,34.023c190.858,95.076 323.109,207.982 443.006,324.646c128.419,179.489 117.015,349.228 2.532,511.781c-126.595,99.068 -273.947,164.613 -446.339,189.72c-123.24,38.418 -239.916,67.12 -353.808,91.703c-22.264,1.052 -43.041,-0.118 -62.051,-3.927l-184.431,-111.893c20.731,38.631 63.842,82.157 181.42,141.968c-43.55,13.779 -86.639,23.273 -127.739,14.227c-89.287,-24.11 -156.833,-57.678 -204.944,-99.699c-54.506,-47.606 -84.069,-106.062 -92.048,-173.908c4.448,-60.81 31.327,-104.156 76.346,-133.379c40.966,-38.462 91.56,-63.314 149.252,-78.133c118.795,40.458 246.707,65.824 391.321,63.544c82.042,12.78 152.205,3.498 213.114,-22.974c-76.486,4.703 -146.507,2.424 -210.076,-6.825c-219.337,-4.273 -338.329,-37.652 -447.088,-74c-11.027,-12.329 -27.317,-19.803 -58.241,-13.78c4.333,-42.619 20.846,-84.374 43.822,-125.669l16.406,-30.419c25.511,16.179 53.408,17.932 86.343,-10.747c17.099,-25.628 34.553,-51.034 54.308,-75c59.045,-1.754 79.011,-54.857 88.323,-121.961c4.186,-55.7 0.556,-112.016 -12.111,-169.043c-46.857,-67.627 -87.102,-134.165 -122.722,-199.941Z" style="fill:#2d3239;"/><path id="right-pant-leg" d="M593.925,3832.1c66.546,-118.704 167.853,-211.908 302.723,-280.49c88.09,5.435 158.706,16.755 213.517,33.397c118.617,-5.129 235.132,-2.708 349.778,6.427c15.076,40.039 46.142,76.06 96.716,107.177c52.261,21.093 90.432,46.518 114.986,76.13c50.922,72.311 74.636,145.715 91.09,219.41c24.984,69.423 66.088,84.612 121.72,50.92c21.367,24.668 44.213,38.27 68.256,42.914c-41.709,107.582 -93.102,229.321 -147.061,354.81c-50.548,77.359 -77.351,151.063 -93.12,223.069c-3.359,39.16 -15.504,77.417 -39.582,114.446c-38.486,34.467 -76.427,53.278 -113.892,58.448c-76.929,21.04 -150.941,25.136 -222.917,17.416c-88.605,-2.628 -163.337,-21.567 -223.164,-58.032c-43.539,-19.443 -77.289,-49.827 -100.192,-92.338l82.107,-266.623c61.544,-321.889 137.833,-498.334 195.481,-646.078c-36.542,50.134 -20.685,-115.222 -171.419,404.527c-85.993,5.062 -159.378,-16.225 -225.076,-53.573c-103.45,-34.959 -176.374,-84.446 -220.924,-147.434c-51.446,-42.697 -80.271,-96.337 -79.027,-164.523Z" style="fill:#2d3239;"/></g><g id="head"><path id="neck" d="M1832.11,1401.44c68.595,274.802 281.075,433.936 565.196,450.619c-10.041,47.571 -26.948,97.033 -46.188,147.139c-61.069,66.993 -138.241,78.369 -222.853,64.045c-112.327,-25.585 -186.516,-87.073 -244.938,-163.404c-60.792,-175.94 -73.653,-341.128 -51.217,-498.399Z" style="fill:#e8a777;"/><path id="face" d="M2522.37,420.7c79.2,167.278 166.679,253.626 251.542,226.051c-43.888,-55.994 -44.375,-74.581 -36.581,-86.031c154.066,211.201 136.713,211.125 145.157,230.672c6.346,89.928 0.1,175.737 -11.378,259.835l-41.256,279.64c-57.819,209.208 -128.156,345.048 -223.83,398.12c-90.093,84.144 -175.079,97.513 -237.986,88.641c-231.158,-15.313 -362.229,-143.086 -461.615,-306.461c-43.927,-64.452 -59.252,-133.179 -64.858,-203.358c-62.102,2.998 -119.038,-14.566 -161.321,-90.449c-50.155,-79.168 -42.007,-156.69 -16.002,-233.707c5.142,-28.015 18.692,-50.973 43.639,-67.074c29.384,-2.394 53.369,9.237 70.911,37.603c37.39,110.69 73.105,175.317 106.768,183.57c52.713,-17.575 67.613,-178.292 82.324,-339.721l144.145,-141.243l-6.863,54.042c107.531,-15.32 200.259,-55.873 274.281,-128.315l142.923,-161.815Z" style="fill:#e8a777;"/><path id="nose" d="M2551.06,1031.74c-13.524,2.852 -21.683,10.262 -25.712,21.183c57.945,275.239 48.709,194.559 50.965,281.586c-65.275,30.831 -139.174,20.956 -220.21,-22.614c-10.498,5.985 -13.113,12.898 -3.893,21.205c58.907,42.816 118.997,83.497 231.562,29.479c19.211,-9.138 32.681,-28.886 20.199,-96.584c-19.748,-66.84 -41.796,-121.429 -52.911,-234.255Z" style="fill:#1d1b27;"/><g id="right-ear-markings"><path d="M1689.78,988.593c26.516,-16.618 53.384,-19.112 81.159,14.789c-4.626,8.641 -14.326,9.838 -26.946,6.752c-8.659,-9.415 -24.756,-17.064 -54.213,-21.541Z" style="fill:#1d1b27;"/><path d="M1764.25,1073.86c-33.205,6.203 -41.721,31.988 -23.753,78.781c20.338,41.208 42.183,48.515 64.208,51.777c10.348,-7.513 12.436,-16.82 3.144,-28.602c-40.375,-10.041 -47.445,-50.941 -43.599,-101.956Z" style="fill:#1d1b27;"/></g><path id="mouth1" serif:id="mouth" d="M2192.43,1448.09c-4.114,-15.632 1.59,-27.392 20.967,-22.402c102.55,68.275 222.321,98.76 374.43,58.284c17.916,0.004 21.237,5.674 15.94,14.69c-64.9,67.435 -263.923,63.571 -411.337,-50.572Z" style="fill:#1d1b27;"/><g id="eyes1" serif:id="eyes"><g id="right-eye1" serif:id="right-eye"><path id="eye-white" d="M2238.02,1083.7c54.524,3.624 97.948,-25.096 123.491,-55.121c-38.517,-50.672 -57.849,-58.648 -104.199,-76.01c-65.904,-0.928 -99.997,23.673 -122.063,57.927c15.074,33.405 51.916,56.593 102.771,73.204Z" style="fill:#fff;"/><path id="right-iris" d="M2189.1,962.145c-22.414,18.865 -9.603,109.083 50.167,121.635c34.308,-1.54 52.547,-22.225 60.129,-45.179c8.952,-21.477 10.598,-42.19 7.51,-61.478c-17.997,-17.671 -37.687,-23.153 -57.482,-27.798c-19.07,-4.475 -59.855,8.16 -60.324,12.82Z" style="fill:#29201d;"/><ellipse cx="2278.65" cy="983.619" rx="12.459" ry="11.991" style="fill:#fff;"/><path id="right-eye-lid" d="M2115.74,1002.26c3.358,6.879 9.895,9.666 23.974,2.745c70.024,-89.982 160.118,-53.053 219.467,20.968c5.193,3.043 10.107,2.474 14.796,-1.025c3.516,-127.072 -224.086,-151.614 -258.237,-22.688Z" style="fill:#1d1b27;"/></g><g id="left-eye1" serif:id="left-eye"><path id="eye-white1" serif:id="eye-white" d="M2681.15,1126.17c54.326,5.893 98.909,-20.992 125.682,-49.926c-36.373,-52.234 -55.355,-61.008 -100.941,-80.287c-65.808,-3.675 -100.897,19.485 -124.371,52.789c13.669,34.004 49.512,58.707 99.63,77.424Z" style="fill:#fff;"/><path id="right-iris1" serif:id="right-iris" d="M2626.01,1012.13c-25.494,28.955 9.528,116.333 56.319,114.038c48.864,-2.397 92.993,-81.394 64.333,-104.061c-17.996,-17.67 -40.018,-21.82 -60.327,-22.797c-19.427,-0.934 -60.325,12.82 -60.325,12.82Z" style="fill:#29201d;"/><ellipse cx="2686.65" cy="1030.25" rx="12.459" ry="11.991" style="fill:#fff;"/><path id="right-eye-lid1" serif:id="right-eye-lid" d="M2580.92,1047.24c3.358,6.879 9.895,9.666 23.974,2.744c70.024,-89.982 148.455,-41.611 182.732,27.036c5.193,3.043 12.593,4.652 17.282,1.153c3.515,-127.073 -189.837,-159.859 -223.988,-30.933Z" style="fill:#1d1b27;"/></g></g><g id="brows"><path id="right-eye-brow" d="M2083.36,894.081c-11.62,-7.462 -13.285,-16.359 -10.247,-25.933c73.6,-131.743 221.482,-89.801 337.229,-54.642c23.846,17.1 33.708,35.463 32.083,54.862c-2.171,13.13 -10.033,22.494 -24.897,27.226c-49.082,-19.675 -106.209,-29.901 -170.649,-31.539l-163.519,30.026Z" style="fill:#1d1b27;"/><path id="left-eye-brow" d="M2737.13,921.502c-2.177,9.257 130.086,50.625 133.209,23.428c-37.787,-138.59 -157.663,-113.572 -251.825,-91.684c-20.812,14.265 -31.037,31.338 -32.567,50.719c-0.21,13.235 4.502,23.38 15.268,29.721c40.612,-13.999 86.064,-17.749 135.915,-12.184Z" style="fill:#1d1b27;"/></g></g></g><path d="M557.172,3473.54c-45.996,123.495 -50.591,259.559 -23.411,405.268c102.294,-190.001 216.868,-279.475 336.872,-324.492c-118.219,-4.171 -225.605,-26.291 -313.461,-80.776Z" style="fill:#a84631;"/></g></svg>