<svg xmlns="http://www.w3.org/2000/svg" fill="currentColor" viewBox="0 0 98 19">
    <path d="m31.125 18.59-4.298-6.943v6.943h-6.864V.97h6.864v6.727l4.36-6.51h7.976L32.64 9.95l6.678 8.64h-8.193ZM53.07 1.063c2 0 3.556.668 4.669 2.006 1.134 1.337 1.7 3.147 1.7 5.43v10.09h-6.833V9.364c0-.822-.227-1.47-.68-1.944-.433-.493-1.02-.74-1.762-.74-.763 0-1.36.247-1.794.74-.432.474-.649 1.122-.649 1.944v9.227h-6.864V1.186h6.864V3.84a6.235 6.235 0 0 1 2.134-2.006c.906-.514 1.978-.771 3.215-.771Zm25.609 8.67c0 .474-.03.926-.093 1.358H67.548c.103 1.502.732 2.253 1.886 2.253.742 0 1.278-.34 1.608-1.018h7.266a7.557 7.557 0 0 1-1.577 3.332c-.783.967-1.783 1.739-2.999 2.315-1.195.555-2.515.833-3.958.833-1.73 0-3.277-.36-4.637-1.08a7.837 7.837 0 0 1-3.154-3.086c-.742-1.358-1.113-2.942-1.113-4.752 0-1.81.37-3.384 1.113-4.721.763-1.358 1.814-2.397 3.154-3.117 1.36-.72 2.906-1.08 4.637-1.08 1.732 0 3.267.36 4.608 1.08a7.453 7.453 0 0 1 3.153 3.024c.763 1.317 1.144 2.87 1.144 4.66Zm-6.957-1.635c0-.576-.185-1.008-.556-1.296-.371-.308-.835-.463-1.392-.463-1.216 0-1.927.587-2.133 1.76h4.081Zm26.01 1.636a9.6 9.6 0 0 1-.093 1.357H86.6c.103 1.502.731 2.253 1.886 2.253.742 0 1.278-.34 1.608-1.018h7.266a7.562 7.562 0 0 1-1.577 3.332c-.784.967-1.784 1.739-3 2.315-1.195.555-2.514.833-3.957.833-1.731 0-3.277-.36-4.638-1.08a7.838 7.838 0 0 1-3.153-3.086c-.743-1.358-1.114-2.942-1.114-4.752 0-1.81.371-3.384 1.114-4.721.762-1.358 1.813-2.397 3.153-3.117 1.36-.72 2.907-1.08 4.638-1.08 1.731 0 3.267.36 4.606 1.08a7.447 7.447 0 0 1 3.154 3.024c.763 1.317 1.144 2.87 1.144 4.66Zm-6.957-1.636c0-.576-.186-1.008-.557-1.296-.37-.308-.835-.463-1.391-.463-1.216 0-1.927.587-2.134 1.76h4.082Z"/>
    <path fill-rule="evenodd" d="M12.496 6.747c4.577 4.597 6.867 9.72 5.115 11.468-1.754 1.75-6.897-.541-11.508-5.12a4.5 4.5 0 0 0 2.462 1.247c3.28 2.64 6.488 3.774 7.717 2.547 1.23-1.227.094-4.428-2.552-7.702a4.484 4.484 0 0 0-1.234-2.44Zm-.048-.048-.023-.023C7.8 2.061 2.624-.256.863 1.501c-1.76 1.757.56 6.924 5.185 11.54l.04.038a4.486 4.486 0 0 1-1.26-2.446C2.122 7.323.949 4.067 2.19 2.827c1.243-1.24 4.506-.07 7.822 2.63A4.5 4.5 0 0 1 12.448 6.7Z" clip-rule="evenodd"/>
    <path d="M15.719 6.041a1.93 1.93 0 0 0 1.932-1.928 1.93 1.93 0 0 0-1.932-1.929 1.93 1.93 0 0 0-1.933 1.929A1.93 1.93 0 0 0 15.72 6.04ZM2.836 18.255a1.93 1.93 0 0 0 1.933-1.928 1.93 1.93 0 0 0-1.933-1.929 1.93 1.93 0 0 0-1.932 1.929 1.93 1.93 0 0 0 1.932 1.928Z"/>
    <path fill-rule="evenodd" d="M9.277 18.898c4.98 0 9.018-4.03 9.018-9s-4.037-9-9.018-9c-4.98 0-9.018 4.03-9.018 9s4.038 9 9.018 9Zm0-4.5a4.504 4.504 0 0 0 4.51-4.5c0-2.485-2.02-4.5-4.51-4.5a4.504 4.504 0 0 0-4.509 4.5c0 2.486 2.02 4.5 4.51 4.5Z" clip-rule="evenodd"/>
    <path d="M9.277 11.827a1.93 1.93 0 0 0 1.933-1.929A1.93 1.93 0 0 0 9.277 7.97a1.93 1.93 0 0 0-1.932 1.928 1.93 1.93 0 0 0 1.932 1.929Z"/>
</svg>
